<?xml version="1.0" encoding="utf-8"?>
<!-- Generator: Adobe Illustrator 23.0.1, SVG Export Plug-In . SVG Version: 6.00 Build 0)  -->
<svg version="1.2" baseProfile="tiny" xmlns="http://www.w3.org/2000/svg" xmlns:xlink="http://www.w3.org/1999/xlink" x="0px"
	 y="0px" viewBox="0 0 500 92" xml:space="preserve">
<g id="Layer_2">
	<polygon fill="#FFFFFF" points="420.58,92 0,92 0,0 500,0 	"/>
</g>
<g id="Layer_1">
	<g>
		<path fill="none" d="M291.3,47.55c-1.62-1.65-3.61-2.48-5.98-2.48c-1.52,0-2.93,0.38-4.22,1.13c-1.29,0.75-2.31,1.8-3.08,3.15
			c-0.76,1.35-1.15,2.78-1.15,4.3c0,1.5,0.39,2.93,1.16,4.29c0.77,1.37,1.8,2.43,3.1,3.19c1.3,0.77,2.68,1.15,4.17,1.15
			s2.92-0.38,4.26-1.13c1.34-0.76,2.37-1.77,3.09-3.06c0.72-1.29,1.08-2.74,1.08-4.36C293.73,51.26,292.92,49.2,291.3,47.55z"/>
		<path fill="none" d="M306.56,59.67c1.62,1.65,3.62,2.48,5.98,2.48c1.53,0,2.93-0.37,4.21-1.12c1.29-0.75,2.32-1.8,3.08-3.16
			c0.76-1.35,1.14-2.79,1.14-4.3c0-1.51-0.38-2.95-1.15-4.32c-0.77-1.37-1.8-2.44-3.09-3.2c-1.29-0.76-2.67-1.14-4.15-1.14
			c-1.5,0-2.91,0.38-4.26,1.14c-1.34,0.76-2.38,1.79-3.1,3.08c-0.72,1.29-1.08,2.74-1.08,4.36
			C304.13,55.96,304.94,58.02,306.56,59.67z"/>
		<path fill="none" d="M373.5,45.85c-1.15-0.53-2.35-0.8-3.62-0.8c-2.09,0-3.88,0.67-5.38,2.01c-1.1,0.98-1.93,2.44-2.49,4.4h15.86
			c-0.37-1.46-0.9-2.63-1.59-3.5C375.57,47.09,374.65,46.38,373.5,45.85z"/>
		<path fill="none" d="M205.24,45.85c-1.15-0.53-2.36-0.8-3.62-0.8c-2.09,0-3.88,0.67-5.38,2.01c-1.1,0.98-1.92,2.44-2.49,4.4h15.86
			c-0.37-1.46-0.9-2.63-1.6-3.5C207.31,47.09,206.38,46.38,205.24,45.85z"/>
		<path fill="none" d="M15.4,64.63c2.67-0.16,5.54-0.24,8.97-0.24c3.34,0,6.11,0.08,8.69,0.24c0.67-0.24,0.86-1.58,0.19-1.98
			l-1.72-0.24c-3.44-0.47-3.63-1.19-3.63-6.88V43.43c0-2.29,0.19-3.4,1.43-4.75c1.34-1.5,4.49-2.77,8.12-2.77
			c6.49,0,8.98,3.32,8.98,7.83v11.79c0,5.7-0.1,6.41-3.63,6.88l-1.81,0.24c-0.67,0.39-0.48,1.74,0.19,1.98
			c2.58-0.16,5.44-0.24,8.88-0.24c3.34,0,6.11,0.08,8.98,0.24c0.67-0.24,0.86-1.58,0.19-1.98l-2.1-0.24
			c-3.44-0.4-3.63-1.19-3.63-6.88v-1.15c0.77,2.86,2.26,5.19,4.23,6.97c2.9,2.64,6.97,3.96,11.37,3.96c4.81,0,11.04-2.17,13.85-7.91
			c-0.08-0.7-0.83-1.24-1.5-1.09c-1.91,2.64-4.4,4.66-9.21,4.66c-8.88,0-13.36-7.22-13.36-13.27c0-8.23,5.64-12.5,11.45-12.5
			c3.4,0,6.47,2.02,8.3,4.11c0.34,0.39,0.75,0.54,1.17,0.54c0.99,0,1.82-1.48,1.82-2.87c0-1.32-0.58-2.56-1.24-3.1
			c-2.24-0.93-5.48-1.32-7.39-1.32c-11.38,0-17.65,6.09-19.49,12.93v-3.57c0-5.3-3.24-9.81-11.17-9.81c-4.87,0-9.35,1.98-13.36,4.04
			c-0.67,0-1.05-0.4-1.05-0.87c0-0.71,0-1.9,0.19-3.72c-0.19-0.39-0.67-0.55-1.05-0.55c-1.91,1.19-7.35,3.24-9.55,3.88
			c-0.48,0.24-0.48,1.11-0.09,1.42l0.86,0.48c2.58,1.42,2.58,1.82,2.58,4.9v13.85c0,5.7-0.09,6.49-3.63,6.88l-2,0.24
			C14.54,63.05,14.73,64.4,15.4,64.63z"/>
		<path fill="#422323" d="M118.25,42.97v21.27h2.74v-7.8c0-2.8,0.13-4.73,0.39-5.79c0.42-1.62,1.28-2.97,2.59-4.07
			c1.31-1.09,2.79-1.64,4.45-1.64c1.45,0,2.62,0.36,3.52,1.07c0.9,0.71,1.51,1.77,1.82,3.17c0.2,0.82,0.3,2.46,0.3,4.91v10.15h2.74
			V53.3c0-2.9-0.29-5.02-0.88-6.39c-0.59-1.37-1.5-2.46-2.73-3.27c-1.23-0.81-2.64-1.21-4.23-1.21c-1.56,0-3.01,0.36-4.34,1.08
			c-1.33,0.72-2.54,1.82-3.64,3.27v-3.81H118.25z"/>
		<path fill="#422323" d="M144.88,36.48c0-0.62-0.22-1.16-0.66-1.6c-0.44-0.44-0.97-0.66-1.6-0.66c-0.61,0-1.13,0.22-1.57,0.66
			c-0.44,0.45-0.66,0.98-0.66,1.6c0,0.61,0.22,1.14,0.66,1.58c0.44,0.45,0.97,0.67,1.57,0.67c0.62,0,1.15-0.22,1.6-0.67
			C144.66,37.63,144.88,37.1,144.88,36.48z"/>
		<rect x="141.26" y="42.98" fill="#422323" width="2.74" height="21.27"/>
		<path fill="#422323" d="M159.49,45.01c3.24,0,5.8,1.25,7.68,3.74l2.17-1.35c-0.64-1.07-1.41-1.95-2.33-2.64
			c-0.91-0.69-2.03-1.25-3.34-1.68c-1.31-0.43-2.67-0.64-4.08-0.64c-2.24,0-4.27,0.49-6.08,1.48c-1.81,0.99-3.24,2.37-4.28,4.14
			c-1.04,1.77-1.55,3.67-1.55,5.73c0,3.06,1.11,5.66,3.32,7.8c2.22,2.14,5.01,3.21,8.37,3.21c2.19,0,4.14-0.42,5.85-1.26
			c1.71-0.84,3.08-2.03,4.1-3.56l-2.17-1.43c-1.98,2.49-4.53,3.73-7.66,3.73c-1.7,0-3.24-0.38-4.62-1.13
			c-1.37-0.76-2.46-1.81-3.24-3.18c-0.79-1.37-1.18-2.82-1.18-4.38c0-2.38,0.86-4.41,2.57-6.07
			C154.75,45.84,156.9,45.01,159.49,45.01z"/>
		<polygon fill="#422323" points="173.58,34.76 173.58,64.25 176.31,64.25 176.31,54.67 187.03,64.25 190.88,64.25 178.5,53.12 
			190.2,42.98 186.18,42.98 176.31,51.56 176.31,34.76 		"/>
		<path fill="#422323" d="M210.26,46.55c-2.16-2.75-5.06-4.12-8.69-4.12c-3.52,0-6.33,1.34-8.43,4.02
			c-1.66,2.11-2.49,4.52-2.49,7.22c0,2.86,0.98,5.44,2.93,7.71c1.96,2.27,4.67,3.41,8.14,3.41c1.56,0,2.97-0.24,4.21-0.71
			c1.24-0.47,2.36-1.17,3.35-2.08c0.99-0.91,1.86-2.11,2.62-3.6l-2.31-1.21c-0.84,1.39-1.61,2.39-2.33,3.01
			c-0.72,0.63-1.59,1.13-2.62,1.5c-1.03,0.38-2.08,0.57-3.16,0.57c-2.25,0-4.13-0.79-5.66-2.37c-1.52-1.58-2.32-3.61-2.37-6.08
			h19.14C212.58,50.92,211.8,48.49,210.26,46.55z M193.74,51.46c0.56-1.95,1.39-3.42,2.49-4.4c1.5-1.34,3.3-2.01,5.38-2.01
			c1.26,0,2.48,0.27,3.62,0.8c1.14,0.54,2.07,1.24,2.77,2.11c0.7,0.87,1.23,2.04,1.6,3.5H193.74z"/>
		<rect x="216.9" y="34.76" fill="#422323" width="2.74" height="29.49"/>
		<path fill="#422323" d="M229.08,62.2c-1.57,0-3.05-0.79-4.45-2.37l-1.72,1.96c0.73,0.94,1.66,1.68,2.77,2.21
			c1.12,0.54,2.29,0.8,3.51,0.8c1.84,0,3.38-0.6,4.6-1.82c1.22-1.21,1.84-2.69,1.84-4.44c0-1.24-0.36-2.35-1.08-3.35
			c-0.74-0.97-2.11-1.99-4.15-3.05c-1.68-0.86-2.77-1.61-3.3-2.25c-0.52-0.63-0.78-1.29-0.78-1.97c0-0.78,0.32-1.47,0.95-2.06
			c0.63-0.59,1.39-0.88,2.28-0.88c1.4,0,2.83,0.71,4.29,2.13l1.76-1.82c-1.99-1.92-3.95-2.87-5.91-2.87c-1.69,0-3.07,0.53-4.18,1.6
			c-1.1,1.07-1.65,2.41-1.65,4.03c0,1.24,0.34,2.34,1.03,3.3c0.7,0.96,2,1.94,3.92,2.93c1.79,0.91,2.94,1.67,3.45,2.27
			c0.51,0.62,0.76,1.31,0.76,2.1c0,0.95-0.39,1.78-1.16,2.48C231.12,61.84,230.18,62.2,229.08,62.2z"/>
		<path fill="#422323" d="M260.96,45.01c3.24,0,5.8,1.25,7.68,3.74l2.17-1.35c-0.64-1.07-1.41-1.95-2.33-2.64
			c-0.92-0.69-2.02-1.25-3.33-1.68c-1.31-0.43-2.67-0.64-4.08-0.64c-2.24,0-4.27,0.49-6.08,1.48c-1.81,0.99-3.23,2.37-4.27,4.14
			c-1.04,1.77-1.55,3.67-1.55,5.73c0,3.06,1.11,5.66,3.33,7.8c2.21,2.14,5,3.21,8.36,3.21c2.19,0,4.15-0.42,5.85-1.26
			c1.72-0.84,3.09-2.03,4.1-3.56l-2.17-1.43c-1.98,2.49-4.53,3.73-7.65,3.73c-1.71,0-3.25-0.38-4.62-1.13
			c-1.38-0.76-2.46-1.81-3.25-3.18c-0.79-1.37-1.18-2.82-1.18-4.38c0-2.38,0.86-4.41,2.57-6.07
			C256.22,45.84,258.37,45.01,260.96,45.01z"/>
		<path fill="#422323" d="M296.26,64.25V42.98h-2.7v3.91c-1.07-1.48-2.31-2.6-3.72-3.35c-1.42-0.74-3-1.11-4.75-1.11
			c-3.02,0-5.6,1.08-7.76,3.26c-2.15,2.18-3.23,4.8-3.23,7.86c0,3.13,1.07,5.79,3.2,7.96c2.13,2.19,4.7,3.28,7.71,3.28
			c1.69,0,3.26-0.35,4.68-1.05c1.43-0.7,2.71-1.75,3.86-3.15v3.66H296.26z M292.65,58.08c-0.72,1.29-1.75,2.31-3.09,3.06
			c-1.35,0.75-2.77,1.13-4.26,1.13s-2.87-0.38-4.17-1.15c-1.3-0.76-2.33-1.82-3.1-3.19c-0.77-1.37-1.16-2.8-1.16-4.29
			c0-1.51,0.38-2.95,1.15-4.3c0.77-1.35,1.79-2.4,3.08-3.15c1.29-0.75,2.7-1.13,4.22-1.13c2.37,0,4.36,0.83,5.98,2.48
			c1.62,1.66,2.43,3.71,2.43,6.17C293.73,55.33,293.37,56.78,292.65,58.08z"/>
		<path fill="#422323" d="M301.59,34.76v29.49h2.74v-3.91c1.08,1.49,2.33,2.6,3.73,3.35c1.41,0.75,2.98,1.11,4.71,1.11
			c3.02,0,5.61-1.09,7.75-3.27c2.15-2.18,3.23-4.8,3.23-7.88c0-3.11-1.07-5.76-3.2-7.95c-2.13-2.19-4.7-3.28-7.71-3.28
			c-1.69,0-3.25,0.35-4.67,1.05c-1.42,0.7-2.7,1.75-3.85,3.16V34.76H301.59z M305.21,49.13c0.72-1.29,1.76-2.32,3.1-3.08
			c1.35-0.76,2.76-1.14,4.26-1.14c1.47,0,2.86,0.38,4.15,1.14c1.29,0.76,2.32,1.83,3.09,3.2c0.77,1.37,1.15,2.81,1.15,4.32
			c0,1.51-0.38,2.95-1.14,4.3c-0.76,1.36-1.78,2.41-3.08,3.16c-1.28,0.75-2.68,1.12-4.21,1.12c-2.36,0-4.35-0.83-5.98-2.48
			c-1.61-1.66-2.43-3.71-2.43-6.18C304.13,51.88,304.49,50.42,305.21,49.13z"/>
		<rect x="327.91" y="42.98" fill="#422323" width="2.73" height="21.27"/>
		<path fill="#422323" d="M331.53,36.48c0-0.62-0.22-1.16-0.66-1.6c-0.44-0.44-0.97-0.66-1.6-0.66c-0.61,0-1.13,0.22-1.58,0.66
			c-0.44,0.45-0.66,0.98-0.66,1.6c0,0.61,0.22,1.14,0.66,1.58c0.45,0.45,0.97,0.67,1.58,0.67c0.62,0,1.15-0.22,1.6-0.67
			C331.31,37.63,331.53,37.1,331.53,36.48z"/>
		<path fill="#422323" d="M335.94,42.97v21.27h2.74v-7.8c0-2.8,0.13-4.73,0.39-5.79c0.42-1.62,1.28-2.97,2.59-4.07
			c1.32-1.09,2.8-1.64,4.45-1.64c1.44,0,2.62,0.36,3.52,1.07c0.9,0.71,1.51,1.77,1.83,3.17c0.2,0.82,0.3,2.46,0.3,4.91v10.15h2.74
			V53.3c0-2.9-0.29-5.02-0.88-6.39c-0.59-1.37-1.49-2.46-2.73-3.27c-1.23-0.81-2.64-1.21-4.23-1.21c-1.57,0-3.01,0.36-4.34,1.08
			c-1.34,0.72-2.55,1.82-3.64,3.27v-3.81H335.94z"/>
		<path fill="#422323" d="M378.53,46.55c-2.16-2.75-5.06-4.12-8.69-4.12c-3.52,0-6.33,1.34-8.44,4.02
			c-1.65,2.11-2.48,4.52-2.48,7.22c0,2.86,0.98,5.44,2.94,7.71c1.96,2.27,4.67,3.41,8.14,3.41c1.56,0,2.97-0.24,4.21-0.71
			c1.24-0.47,2.36-1.17,3.35-2.08c0.99-0.91,1.87-2.11,2.62-3.6l-2.3-1.21c-0.84,1.39-1.61,2.39-2.33,3.01
			c-0.72,0.63-1.59,1.13-2.62,1.5c-1.03,0.38-2.08,0.57-3.16,0.57c-2.24,0-4.13-0.79-5.65-2.37c-1.53-1.58-2.32-3.61-2.37-6.08
			h19.14C380.86,50.92,380.07,48.49,378.53,46.55z M362.01,51.46c0.56-1.95,1.39-3.42,2.49-4.4c1.5-1.34,3.29-2.01,5.38-2.01
			c1.27,0,2.47,0.27,3.62,0.8c1.15,0.54,2.07,1.24,2.77,2.11c0.69,0.87,1.22,2.04,1.59,3.5H362.01z"/>
		<polygon fill="#422323" points="387.36,35.08 387.36,42.98 383.63,42.98 383.63,45.34 387.36,45.34 387.36,64.25 390.1,64.25 
			390.1,45.34 394.44,45.34 394.44,42.98 390.1,42.98 390.1,35.08 		"/>
		<path fill="#422323" d="M403.03,52.14c-1.68-0.86-2.77-1.61-3.29-2.25c-0.52-0.63-0.78-1.29-0.78-1.97c0-0.78,0.32-1.47,0.95-2.06
			s1.39-0.88,2.28-0.88c1.4,0,2.84,0.71,4.29,2.13l1.76-1.82c-1.99-1.92-3.96-2.87-5.92-2.87c-1.68,0-3.08,0.53-4.18,1.6
			c-1.1,1.07-1.66,2.41-1.66,4.03c0,1.24,0.35,2.34,1.04,3.3c0.69,0.96,1.99,1.94,3.92,2.93c1.79,0.91,2.94,1.67,3.45,2.27
			c0.51,0.62,0.76,1.31,0.76,2.1c0,0.95-0.38,1.78-1.15,2.48c-0.77,0.7-1.71,1.06-2.81,1.06c-1.56,0-3.05-0.79-4.45-2.37l-1.72,1.96
			c0.74,0.94,1.66,1.68,2.78,2.21c1.12,0.54,2.29,0.8,3.52,0.8c1.84,0,3.37-0.6,4.6-1.82c1.23-1.21,1.84-2.69,1.84-4.44
			c0-1.24-0.36-2.35-1.07-3.35C406.45,54.22,405.07,53.2,403.03,52.14z"/>
		<path fill="#422323" d="M-1,92.41h101.83V0H-1V92.41z M15.21,62.65l2-0.24c3.53-0.4,3.63-1.19,3.63-6.88V41.69
			c0-3.08,0-3.48-2.58-4.9l-0.86-0.48c-0.38-0.32-0.38-1.19,0.09-1.42c2.2-0.63,7.64-2.69,9.55-3.88c0.38,0,0.86,0.16,1.05,0.55
			c-0.19,1.82-0.19,3.01-0.19,3.72c0,0.48,0.38,0.87,1.05,0.87c4.01-2.06,8.5-4.04,13.36-4.04c7.93,0,11.17,4.51,11.17,9.81v3.57
			c1.84-6.84,8.12-12.93,19.49-12.93c1.91,0,5.14,0.39,7.39,1.32c0.66,0.54,1.24,1.78,1.24,3.1c0,1.4-0.83,2.87-1.82,2.87
			c-0.41,0-0.83-0.16-1.17-0.54c-1.82-2.09-4.89-4.11-8.3-4.11c-5.81,0-11.45,4.27-11.45,12.5c0,6.05,4.48,13.27,13.36,13.27
			c4.81,0,7.3-2.02,9.21-4.66c0.67-0.15,1.41,0.39,1.5,1.09c-2.82,5.74-9.04,7.91-13.85,7.91c-4.4,0-8.47-1.32-11.37-3.96
			c-1.96-1.78-3.45-4.11-4.23-6.97v1.15c0,5.7,0.19,6.49,3.63,6.88l2.1,0.24c0.67,0.39,0.48,1.74-0.19,1.98
			c-2.86-0.16-5.63-0.24-8.98-0.24c-3.44,0-6.3,0.08-8.88,0.24c-0.67-0.24-0.86-1.58-0.19-1.98l1.81-0.24
			c3.53-0.47,3.63-1.19,3.63-6.88V43.74c0-4.51-2.48-7.83-8.98-7.83c-3.63,0-6.78,1.26-8.12,2.77c-1.24,1.35-1.43,2.45-1.43,4.75
			v12.11c0,5.7,0.19,6.41,3.63,6.88l1.72,0.24c0.67,0.39,0.48,1.74-0.19,1.98c-2.58-0.16-5.35-0.24-8.69-0.24
			c-3.44,0-6.3,0.08-8.97,0.24C14.73,64.4,14.54,63.05,15.21,62.65z"/>
	</g>
</g>
</svg>
