<svg xmlns="http://www.w3.org/2000/svg" xmlns:xlink="http://www.w3.org/1999/xlink" viewBox="0 0 500 92"><defs><style>.a{fill:none;}.b{fill:#fff;}.c{clip-path:url(#a);}.d{clip-path:url(#b);}.e{fill:#422323;}</style><clipPath id="a"><rect class="a" width="409.26" height="92.41"/></clipPath><clipPath id="b"><rect class="a" width="409.26" height="92.41"/></clipPath></defs><title>logoNC</title><polygon class="b" points="420.58 92 0 92 0 0 500 0 420.58 92"/><g class="c"><g class="d"><path class="e" d="M119.25,43H122v3.82a11.6,11.6,0,0,1,3.64-3.28A9,9,0,0,1,130,42.43a7.51,7.51,0,0,1,4.23,1.21,7.27,7.27,0,0,1,2.73,3.27,17.12,17.12,0,0,1,.88,6.39v11h-2.74V54.1a25.4,25.4,0,0,0-.3-4.91A5.41,5.41,0,0,0,132.94,46,5.51,5.51,0,0,0,129.42,45,6.81,6.81,0,0,0,125,46.59a7.72,7.72,0,0,0-2.59,4.07,28.43,28.43,0,0,0-.39,5.79v7.8h-2.74Z"/><path class="e" d="M143.62,34.21a2.27,2.27,0,0,1,2.26,2.27,2.17,2.17,0,0,1-.66,1.59,2.19,2.19,0,0,1-1.6.66,2.27,2.27,0,0,1-2.24-2.25,2.29,2.29,0,0,1,2.24-2.27M142.26,43H145V64.25h-2.74Z"/><path class="e" d="M170.34,47.39l-2.18,1.35A9.1,9.1,0,0,0,160.49,45a8.89,8.89,0,0,0-6.46,2.5,8.14,8.14,0,0,0-2.56,6.07A8.62,8.62,0,0,0,152.65,58a8.32,8.32,0,0,0,3.24,3.18,9.46,9.46,0,0,0,4.62,1.13,9.32,9.32,0,0,0,7.65-3.73L170.34,60a10.28,10.28,0,0,1-4.1,3.56,13.17,13.17,0,0,1-5.86,1.26,11.57,11.57,0,0,1-8.37-3.2,10.46,10.46,0,0,1-3.32-7.8,11.21,11.21,0,0,1,1.55-5.74,11,11,0,0,1,4.28-4.14,12.47,12.47,0,0,1,6.08-1.48,12.93,12.93,0,0,1,4.07.64A11.36,11.36,0,0,1,168,44.75a9.32,9.32,0,0,1,2.33,2.64"/><polygon class="e" points="174.58 34.76 177.31 34.76 177.31 51.56 187.18 42.98 191.2 42.98 179.5 53.12 191.88 64.25 188.03 64.25 177.31 54.67 177.31 64.25 174.58 64.25 174.58 34.76"/><path class="e" d="M210.6,57.19l2.31,1.21a12.59,12.59,0,0,1-2.62,3.6,10.45,10.45,0,0,1-3.35,2.08,11.62,11.62,0,0,1-4.21.71,10.18,10.18,0,0,1-8.14-3.4,11.51,11.51,0,0,1-2.93-7.72,11.33,11.33,0,0,1,2.48-7.21,10.14,10.14,0,0,1,8.43-4,10.48,10.48,0,0,1,8.69,4.12,11.55,11.55,0,0,1,2.35,7.28H194.47a8.62,8.62,0,0,0,2.37,6.07,7.56,7.56,0,0,0,5.66,2.37,9.27,9.27,0,0,0,3.16-.56,8.5,8.5,0,0,0,2.61-1.5,12.76,12.76,0,0,0,2.33-3m0-5.73A9.1,9.1,0,0,0,209,48a7.5,7.5,0,0,0-2.76-2.11,8.43,8.43,0,0,0-3.63-.8,7.81,7.81,0,0,0-5.38,2,9.18,9.18,0,0,0-2.49,4.4Z"/><rect class="e" x="217.9" y="34.76" width="2.74" height="29.49"/><path class="e" d="M236.62,45.3l-1.76,1.82A6.31,6.31,0,0,0,230.57,45a3.21,3.21,0,0,0-2.28.88,2.73,2.73,0,0,0-.95,2.05,3.07,3.07,0,0,0,.78,2,10.92,10.92,0,0,0,3.3,2.24,12.6,12.6,0,0,1,4.15,3,5.58,5.58,0,0,1,1.08,3.35A6,6,0,0,1,234.8,63a6.26,6.26,0,0,1-4.6,1.81,7.91,7.91,0,0,1-3.51-.8,7.65,7.65,0,0,1-2.78-2.21l1.73-2a6,6,0,0,0,4.44,2.37,4,4,0,0,0,2.8-1.06,3.25,3.25,0,0,0,.4-4.58,12.46,12.46,0,0,0-3.45-2.27,11.06,11.06,0,0,1-3.92-2.93,5.51,5.51,0,0,1-1-3.3,5.38,5.38,0,0,1,1.65-4,5.76,5.76,0,0,1,4.18-1.6q2.94,0,5.91,2.87"/><path class="e" d="M271.8,47.39l-2.17,1.35A9.1,9.1,0,0,0,262,45a8.85,8.85,0,0,0-6.45,2.5,8.15,8.15,0,0,0-2.57,6.07A8.62,8.62,0,0,0,254.12,58a8.25,8.25,0,0,0,3.24,3.18A9.49,9.49,0,0,0,262,62.27a9.32,9.32,0,0,0,7.65-3.73L271.8,60a10.15,10.15,0,0,1-4.1,3.56,13.07,13.07,0,0,1-5.85,1.26,11.53,11.53,0,0,1-8.36-3.2,10.43,10.43,0,0,1-3.33-7.8,11.13,11.13,0,0,1,1.56-5.74A10.94,10.94,0,0,1,256,43.91a12.5,12.5,0,0,1,6.09-1.48,12.93,12.93,0,0,1,4.07.64,11.49,11.49,0,0,1,3.34,1.68,9.14,9.14,0,0,1,2.32,2.64"/><path class="e" d="M297.26,43V64.25h-2.7V60.59a11.62,11.62,0,0,1-3.86,3.15A10.54,10.54,0,0,1,286,64.79a10.35,10.35,0,0,1-7.71-3.27,11,11,0,0,1-3.2-8,10.8,10.8,0,0,1,3.23-7.86,10.5,10.5,0,0,1,7.76-3.26,10.11,10.11,0,0,1,4.75,1.11,10.88,10.88,0,0,1,3.72,3.35V43Zm-10.94,2.08a8.3,8.3,0,0,0-7.3,4.28,8.65,8.65,0,0,0,0,8.6,8.34,8.34,0,0,0,3.1,3.19,8.1,8.1,0,0,0,4.17,1.14,8.62,8.62,0,0,0,4.26-1.13,7.91,7.91,0,0,0,3.09-3.06,8.84,8.84,0,0,0,1.08-4.36,8.46,8.46,0,0,0-2.43-6.17,8,8,0,0,0-6-2.49"/><path class="e" d="M302.59,64.25V34.76h2.73V46.63a11.6,11.6,0,0,1,3.85-3.16,10.79,10.79,0,0,1,12.37,2.24,11.34,11.34,0,0,1,0,15.82,10.46,10.46,0,0,1-7.75,3.26,9.86,9.86,0,0,1-4.71-1.11,11.15,11.15,0,0,1-3.73-3.34v3.91Zm10.94-2.09a8.28,8.28,0,0,0,7.29-4.29,8.68,8.68,0,0,0,0-8.62,8.42,8.42,0,0,0-3.09-3.2,8.06,8.06,0,0,0-4.15-1.14,8.53,8.53,0,0,0-4.26,1.14,8,8,0,0,0-3.1,3.08,8.81,8.81,0,0,0-1.08,4.36,8.47,8.47,0,0,0,2.43,6.18,8,8,0,0,0,6,2.49"/><path class="e" d="M330.27,34.21a2.27,2.27,0,0,1,2.26,2.27,2.17,2.17,0,0,1-.66,1.59,2.25,2.25,0,0,1-3.18,0,2.17,2.17,0,0,1-.66-1.59,2.27,2.27,0,0,1,2.24-2.27M328.91,43h2.73V64.25h-2.73Z"/><path class="e" d="M336.94,43h2.74v3.82a11.39,11.39,0,0,1,3.64-3.28,8.91,8.91,0,0,1,4.33-1.08,7.47,7.47,0,0,1,4.23,1.21,7.15,7.15,0,0,1,2.73,3.27,17.12,17.12,0,0,1,.88,6.39v11h-2.74V54.1a25.4,25.4,0,0,0-.3-4.91A5.36,5.36,0,0,0,350.62,46,5.5,5.5,0,0,0,347.11,45a6.81,6.81,0,0,0-4.46,1.64,7.77,7.77,0,0,0-2.58,4.07,28.43,28.43,0,0,0-.39,5.79v7.8h-2.74Z"/><path class="e" d="M378.87,57.19l2.3,1.21a12.41,12.41,0,0,1-2.62,3.6,10.34,10.34,0,0,1-3.35,2.08,11.53,11.53,0,0,1-4.2.71,10.21,10.21,0,0,1-8.15-3.4,11.56,11.56,0,0,1-2.93-7.72,11.39,11.39,0,0,1,2.48-7.21,10.18,10.18,0,0,1,8.44-4,10.49,10.49,0,0,1,8.69,4.12,11.49,11.49,0,0,1,2.35,7.28H362.74a8.62,8.62,0,0,0,2.37,6.07,7.54,7.54,0,0,0,5.65,2.37,9.29,9.29,0,0,0,3.17-.56,8.5,8.5,0,0,0,2.61-1.5,12.76,12.76,0,0,0,2.33-3m0-5.73a9.25,9.25,0,0,0-1.59-3.5,7.66,7.66,0,0,0-2.78-2.11,8.39,8.39,0,0,0-3.62-.8,7.79,7.79,0,0,0-5.38,2,9.1,9.1,0,0,0-2.49,4.4Z"/><polygon class="e" points="388.36 35.08 391.1 35.08 391.1 42.98 395.44 42.98 395.44 45.34 391.1 45.34 391.1 64.25 388.36 64.25 388.36 45.34 384.63 45.34 384.63 42.98 388.36 42.98 388.36 35.08"/><path class="e" d="M409.24,45.3l-1.76,1.82A6.33,6.33,0,0,0,403.19,45a3.25,3.25,0,0,0-2.29.88,2.73,2.73,0,0,0-.95,2.05,3.09,3.09,0,0,0,.79,2A10.84,10.84,0,0,0,404,52.14a12.38,12.38,0,0,1,4.15,3,5.58,5.58,0,0,1,1.08,3.35A6,6,0,0,1,407.41,63a6.25,6.25,0,0,1-4.59,1.81,8,8,0,0,1-3.52-.8,7.73,7.73,0,0,1-2.78-2.21l1.73-2a6,6,0,0,0,4.45,2.37,4,4,0,0,0,2.8-1.06,3.26,3.26,0,0,0,.39-4.58,12.2,12.2,0,0,0-3.44-2.27,10.87,10.87,0,0,1-3.92-2.93,5.51,5.51,0,0,1-1-3.3,5.35,5.35,0,0,1,1.66-4,5.73,5.73,0,0,1,4.17-1.6q3,0,5.92,2.87"/><path class="e" d="M0,92.41H101.83V0H0Zm70.09-27.1a16.72,16.72,0,0,1-11.37-4,14.36,14.36,0,0,1-4.23-7v1.15c0,5.7.19,6.49,3.63,6.89l2.1.23a1.23,1.23,0,0,1-.19,2c-2.86-.16-5.63-.23-9-.23s-6.31.07-8.88.23a1.23,1.23,0,0,1-.19-2l1.81-.23c3.53-.48,3.63-1.19,3.63-6.89V43.74c0-4.51-2.48-7.83-9-7.83-3.63,0-6.78,1.26-8.12,2.77-1.24,1.34-1.43,2.45-1.43,4.75v12.1c0,5.7.19,6.41,3.63,6.89l1.72.23a1.24,1.24,0,0,1-.2,2c-2.58-.16-5.34-.23-8.69-.23s-6.3.07-9,.23a1.23,1.23,0,0,1-.19-2l2-.23c3.54-.4,3.63-1.19,3.63-6.89V41.69c0-3.09,0-3.49-2.57-4.91l-.86-.48a.94.94,0,0,1,.09-1.42A57.32,57.32,0,0,0,28.05,31a1.15,1.15,0,0,1,1.05.54,33.15,33.15,0,0,0-.19,3.73c0,.47.38.87,1.05.87,4-2.06,8.5-4,13.36-4,7.93,0,11.17,4.51,11.17,9.81v3.57c1.85-6.84,8.12-12.93,19.5-12.93a22,22,0,0,1,7.38,1.32A4.25,4.25,0,0,1,82.62,37c0,1.4-.83,2.88-1.83,2.88a1.49,1.49,0,0,1-1.16-.55,11.59,11.59,0,0,0-8.3-4.11c-5.81,0-11.45,4.26-11.45,12.49A13.13,13.13,0,0,0,73.24,61a10.29,10.29,0,0,0,9.21-4.66,1.29,1.29,0,0,1,1.49,1.08c-2.82,5.75-9,7.92-13.85,7.92"/></g></g></svg>
